<svg width="1200" height="600" viewBox="0 0 1200 600" fill="none" xmlns="http://www.w3.org/2000/svg">
  <rect width="1200" height="600" fill="#F4F6F8"/>
  <rect x="72" y="72" width="1056" height="456" rx="28" fill="#FFFFFF"/>
  <rect x="72" y="72" width="1056" height="456" rx="28" stroke="#D7DEE6" stroke-width="2"/>
  <rect x="128" y="132" width="92" height="92" rx="22" fill="#F97316"/>
  <text x="174" y="194" text-anchor="middle" font-family="Arial, Helvetica, sans-serif" font-size="52" font-weight="700" fill="#FFFFFF">D</text>
  <text x="248" y="170" font-family="Arial, Helvetica, sans-serif" font-size="54" font-weight="700" fill="#1F2937">Demain</text>
  <text x="250" y="218" font-family="Arial, Helvetica, sans-serif" font-size="32" font-weight="600" fill="#6B7280">Informática</text>
  <text x="128" y="316" font-family="Arial, Helvetica, sans-serif" font-size="44" font-weight="700" fill="#111827">Servicio técnico y mantenimiento</text>
  <text x="128" y="366" font-family="Arial, Helvetica, sans-serif" font-size="44" font-weight="700" fill="#111827">informático en Donostia</text>
  <text x="128" y="426" font-family="Arial, Helvetica, sans-serif" font-size="27" font-weight="400" fill="#4B5563">Asistencia, reparación y asesoramiento tecnológico</text>
  <text x="128" y="464" font-family="Arial, Helvetica, sans-serif" font-size="27" font-weight="400" fill="#4B5563">para particulares, comercios y pymes.</text>
  <rect x="128" y="466" width="180" height="44" rx="22" fill="#FFF3E8"/>
  <text x="218" y="496" text-anchor="middle" font-family="Arial, Helvetica, sans-serif" font-size="20" font-weight="700" fill="#C2410C">943 320 705</text>
  <text x="332" y="496" font-family="Arial, Helvetica, sans-serif" font-size="20" font-weight="600" fill="#374151">demaininformatica.com</text>
  <path d="M934 150h92c25.405 0 46 20.595 46 46v92c0 25.405-20.595 46-46 46h-92c-25.405 0-46-20.595-46-46v-92c0-25.405 20.595-46 46-46Z" fill="#111827"/>
  <path d="M944 204h72c15.464 0 28 12.536 28 28v36c0 15.464-12.536 28-28 28h-72c-15.464 0-28-12.536-28-28v-36c0-15.464 12.536-28 28-28Z" fill="#F97316"/>
  <rect x="932" y="228" width="96" height="16" rx="8" fill="#FFFFFF"/>
  <rect x="932" y="264" width="66" height="16" rx="8" fill="#FFFFFF"/>
  <circle cx="1028" cy="272" r="9" fill="#FFFFFF"/>
</svg>
