<svg width="1200" height="600" viewBox="0 0 1200 600" fill="none" xmlns="http://www.w3.org/2000/svg">
  <rect width="1200" height="600" fill="#F4F6F8"/>
  <rect x="72" y="72" width="1056" height="456" rx="28" fill="#FFFFFF"/>
  <rect x="72" y="72" width="1056" height="456" rx="28" stroke="#D7DEE6" stroke-width="2"/>
  <rect x="128" y="132" width="92" height="92" rx="22" fill="#F97316"/>
  <text x="174" y="194" text-anchor="middle" font-family="Arial, Helvetica, sans-serif" font-size="52" font-weight="700" fill="#FFFFFF">D</text>
  <text x="248" y="170" font-family="Arial, Helvetica, sans-serif" font-size="54" font-weight="700" fill="#1F2937">Demain</text>
  <text x="250" y="218" font-family="Arial, Helvetica, sans-serif" font-size="32" font-weight="600" fill="#6B7280">Informática</text>
  <text x="128" y="324" font-family="Arial, Helvetica, sans-serif" font-size="48" font-weight="700" fill="#111827">Servicio técnico y mantenimiento informático</text>
  <text x="128" y="384" font-family="Arial, Helvetica, sans-serif" font-size="28" font-weight="400" fill="#4B5563">Asistencia, reparación y asesoramiento tecnológico</text>
  <text x="128" y="424" font-family="Arial, Helvetica, sans-serif" font-size="28" font-weight="400" fill="#4B5563">para particulares, comercios y pymes en Donostia.</text>
  <rect x="128" y="466" width="180" height="44" rx="22" fill="#FFF3E8"/>
  <text x="218" y="496" text-anchor="middle" font-family="Arial, Helvetica, sans-serif" font-size="20" font-weight="700" fill="#C2410C">943 320 705</text>
  <text x="332" y="496" font-family="Arial, Helvetica, sans-serif" font-size="20" font-weight="600" fill="#374151">demaininformatica.com</text>
  <path d="M916 158h104c28.719 0 52 23.281 52 52v104c0 28.719-23.281 52-52 52H916c-28.719 0-52-23.281-52-52V210c0-28.719 23.281-52 52-52Z" fill="#111827"/>
  <path d="M928 218h82c17.673 0 32 14.327 32 32v40c0 17.673-14.327 32-32 32h-82c-17.673 0-32-14.327-32-32v-40c0-17.673 14.327-32 32-32Z" fill="#F97316"/>
  <rect x="914" y="242" width="110" height="18" rx="9" fill="#FFFFFF"/>
  <rect x="914" y="282" width="76" height="18" rx="9" fill="#FFFFFF"/>
  <circle cx="1024" cy="291" r="10" fill="#FFFFFF"/>
</svg>
